<svg width="17" height="17" viewBox="0 0 17 17" fill="none" xmlns="http://www.w3.org/2000/svg">
<path fill-rule="evenodd" clip-rule="evenodd" d="M15.9893 2.46643C15.9893 2.20121 15.8839 1.94686 15.6964 1.75932C15.5088 1.57179 15.2545 1.46643 14.9893 1.46643H2.98926C2.72404 1.46643 2.46969 1.57179 2.28215 1.75932C2.09461 1.94686 1.98926 2.20121 1.98926 2.46643V14.4664C1.98926 14.7316 2.09461 14.986 2.28215 15.1735C2.46969 15.3611 2.72404 15.4664 2.98926 15.4664H14.9893C15.2545 15.4664 15.5088 15.3611 15.6964 15.1735C15.8839 14.986 15.9893 14.7316 15.9893 14.4664V2.46643ZM0.989258 2.46643C0.989258 1.936 1.19997 1.42729 1.57504 1.05222C1.95012 0.677144 2.45882 0.466431 2.98926 0.466431L14.9893 0.466431C15.5197 0.466431 16.0284 0.677144 16.4035 1.05222C16.7785 1.42729 16.9893 1.936 16.9893 2.46643V14.4664C16.9893 14.9969 16.7785 15.5056 16.4035 15.8806C16.0284 16.2557 15.5197 16.4664 14.9893 16.4664H2.98926C2.45882 16.4664 1.95012 16.2557 1.57504 15.8806C1.19997 15.5056 0.989258 14.9969 0.989258 14.4664V2.46643ZM12.4893 7.96643C12.6219 7.96643 12.749 8.01911 12.8428 8.11288C12.9366 8.20665 12.9893 8.33382 12.9893 8.46643C12.9893 8.59904 12.9366 8.72622 12.8428 8.81998C12.749 8.91375 12.6219 8.96643 12.4893 8.96643H6.69626L8.84326 11.1124C8.88975 11.1589 8.92662 11.2141 8.95178 11.2748C8.97694 11.3356 8.98989 11.4007 8.98989 11.4664C8.98989 11.5322 8.97694 11.5973 8.95178 11.658C8.92662 11.7188 8.88975 11.7739 8.84326 11.8204C8.79677 11.8669 8.74158 11.9038 8.68084 11.929C8.6201 11.9541 8.555 11.9671 8.48926 11.9671C8.42351 11.9671 8.35841 11.9541 8.29767 11.929C8.23693 11.9038 8.18175 11.8669 8.13526 11.8204L5.13526 8.82043C5.08869 8.77398 5.05175 8.71881 5.02655 8.65806C5.00134 8.59732 4.98836 8.5322 4.98836 8.46643C4.98836 8.40066 5.00134 8.33554 5.02655 8.2748C5.05175 8.21405 5.08869 8.15888 5.13526 8.11243L8.13526 5.11243C8.22914 5.01854 8.35648 4.9658 8.48926 4.9658C8.62203 4.9658 8.74937 5.01854 8.84326 5.11243C8.93714 5.20632 8.98989 5.33365 8.98989 5.46643C8.98989 5.59921 8.93714 5.72654 8.84326 5.82043L6.69626 7.96643H12.4893Z" fill="#221516"/>
</svg>
