<svg width="52.42" height="52.42" viewBox="0 0 54 53" fill="none" xmlns="http://www.w3.org/2000/svg">
<circle cx="27.0634" cy="26.5" r="26.2104" fill="#ED1B27"/>
<path d="M41.5057 24.4942V25.2965C41.5057 25.9612 40.9669 26.5001 40.3022 26.5001H39.901L38.5915 35.6664C38.4221 36.8522 37.4065 37.733 36.2087 37.733H17.918C16.7201 37.733 15.7046 36.8522 15.5351 35.6664L14.2257 26.5001H13.8245C13.1598 26.5001 12.621 25.9612 12.621 25.2965V24.4942C12.621 23.8295 13.1598 23.2907 13.8245 23.2907H17.2015L22.5562 15.928C23.0774 15.2113 24.081 15.0528 24.7978 15.5741C25.5145 16.0954 25.673 17.0989 25.1517 17.8157L21.1699 23.2907H32.9568L28.9749 17.8157C28.4537 17.0989 28.6122 16.0953 29.3289 15.574C30.0456 15.0527 31.0493 15.2112 31.5706 15.928L36.9252 23.2907H40.3022C40.9669 23.2907 41.5057 23.8295 41.5057 24.4942ZM28.2669 33.3201V27.7036C28.2669 27.0389 27.728 26.5001 27.0633 26.5001C26.3986 26.5001 25.8598 27.0389 25.8598 27.7036V33.3201C25.8598 33.9848 26.3986 34.5236 27.0633 34.5236C27.728 34.5236 28.2669 33.9848 28.2669 33.3201ZM33.8833 33.3201V27.7036C33.8833 27.0389 33.3445 26.5001 32.6798 26.5001C32.0151 26.5001 31.4763 27.0389 31.4763 27.7036V33.3201C31.4763 33.9848 32.0151 34.5236 32.6798 34.5236C33.3445 34.5236 33.8833 33.9848 33.8833 33.3201ZM22.6504 33.3201V27.7036C22.6504 27.0389 22.1116 26.5001 21.4469 26.5001C20.7822 26.5001 20.2433 27.0389 20.2433 27.7036V33.3201C20.2433 33.9848 20.7822 34.5236 21.4469 34.5236C22.1116 34.5236 22.6504 33.9848 22.6504 33.3201Z" fill="white"/>
</svg>
