<svg width="21" height="26" viewBox="0 0 21 26" fill="none" xmlns="http://www.w3.org/2000/svg">
<path d="M20.8867 15.3777C20.8867 20.9881 16.3408 25.534 10.7305 25.534C5.12012 25.534 0.574219 20.9881 0.574219 15.3777C0.574219 10.2996 4.2998 6.09064 9.16797 5.34357V3.659H7.80078C7.47852 3.659 7.21484 3.39532 7.21484 3.07306V1.11993C7.21484 0.797668 7.47852 0.533997 7.80078 0.533997H13.6602C13.9824 0.533997 14.2461 0.797668 14.2461 1.11993V3.07306C14.2461 3.39532 13.9824 3.659 13.6602 3.659H12.293V5.34357C14.124 5.62677 15.7939 6.39825 17.1611 7.5213L18.5039 6.17853C18.7334 5.94904 19.1045 5.94904 19.334 6.17853L20.7158 7.56036C20.9453 7.78986 20.9453 8.16095 20.7158 8.39044L19.2803 9.82599L19.251 9.85529C20.2861 11.4373 20.8867 13.3367 20.8867 15.3777ZM12.293 17.1356V9.7381C12.293 9.41583 12.0293 9.15216 11.707 9.15216H9.75391C9.43164 9.15216 9.16797 9.41583 9.16797 9.7381V17.1356C9.16797 17.4578 9.43164 17.7215 9.75391 17.7215H11.707C12.0293 17.7215 12.293 17.4578 12.293 17.1356Z" fill="#B1111B"/>
</svg>
