<?xml version="1.0"?>
<svg xmlns="http://www.w3.org/2000/svg" viewBox="0 0 24 24 ">
    <path style="stroke:white" d="M 10.457031 1.0429688 L 9.0429688 2.4570312 L 11.585938 5 L 9 7.5859375 L 10.414062 9 L 13 6.4140625 L 15.585938 9 L 17 7.5859375 L 14.414062 5 L 16.957031 2.4570312 L 15.542969 1.0429688 L 13 3.5859375 L 10.457031 1.0429688 z M 2 3 L 2 5 L 4 5 L 7.2910156 11.765625 L 6.1816406 13.994141 C 5.7486406 14.600141 5.7301562 15.412047 6.0351562 15.998047 C 6.3401562 16.585047 6.9838437 17 7.7148438 17 L 20 17 L 20 15 C 20 15 7.99 15.013 8 15 L 9 13 L 18 13 C 18.377 13 18.759516 12.816453 18.853516 12.439453 L 21.785156 6.4433594 C 22.108156 5.7823594 21.630531 5.0089063 20.894531 5.0039062 L 20.353516 5 L 17.363281 11 L 9 11 L 5.3554688 3 L 2 3 z M 8 18 A 2 2 0 0 0 6 20 A 2 2 0 0 0 8 22 A 2 2 0 0 0 10 20 A 2 2 0 0 0 8 18 z M 18 18 A 2 2 0 0 0 16 20 A 2 2 0 0 0 18 22 A 2 2 0 0 0 20 20 A 2 2 0 0 0 18 18 z"/>
</svg>
