<svg width="16" height="17" viewBox="0 0 16 17" fill="none" xmlns="http://www.w3.org/2000/svg">
<path d="M0 14.4664C0 14.9969 0.210714 15.5056 0.585786 15.8806C0.960859 16.2557 1.46957 16.4664 2 16.4664H14C14.5304 16.4664 15.0391 16.2557 15.4142 15.8806C15.7893 15.5056 16 14.9969 16 14.4664V2.46643C16 1.936 15.7893 1.42729 15.4142 1.05222C15.0391 0.677144 14.5304 0.466431 14 0.466431L2 0.466431C1.46957 0.466431 0.960859 0.677144 0.585786 1.05222C0.210714 1.42729 0 1.936 0 2.46643L0 14.4664ZM4.5 7.96643H10.293L8.146 5.82043C8.05211 5.72654 7.99937 5.59921 7.99937 5.46643C7.99937 5.33365 8.05211 5.20632 8.146 5.11243C8.23989 5.01854 8.36722 4.9658 8.5 4.9658C8.63278 4.9658 8.76011 5.01854 8.854 5.11243L11.854 8.11243C11.9006 8.15888 11.9375 8.21405 11.9627 8.2748C11.9879 8.33554 12.0009 8.40066 12.0009 8.46643C12.0009 8.5322 11.9879 8.59732 11.9627 8.65806C11.9375 8.71881 11.9006 8.77399 11.854 8.82043L8.854 11.8204C8.76011 11.9143 8.63278 11.9671 8.5 11.9671C8.36722 11.9671 8.23989 11.9143 8.146 11.8204C8.05211 11.7265 7.99937 11.5992 7.99937 11.4664C7.99937 11.3337 8.05211 11.2063 8.146 11.1124L10.293 8.96643H4.5C4.36739 8.96643 4.24021 8.91375 4.14645 8.81998C4.05268 8.72622 4 8.59904 4 8.46643C4 8.33382 4.05268 8.20665 4.14645 8.11288C4.24021 8.01911 4.36739 7.96643 4.5 7.96643Z" fill="#ED1B27"/>
</svg>
