<svg width="54" height="45" viewBox="0 0 54 45" fill="none" xmlns="http://www.w3.org/2000/svg">
<path d="M53.8327 24.5455C53.8327 25.6304 53.4017 26.671 52.6345 27.4382C51.8673 28.2054 50.8268 28.6364 49.7418 28.6364H4.74179C3.65681 28.6364 2.61627 28.2054 1.84908 27.4382C1.08188 26.671 0.650879 25.6304 0.650879 24.5455C0.650879 23.4605 1.08188 22.4199 1.84908 21.6527C2.61627 20.8856 3.65681 20.4545 4.74179 20.4545H49.7418C50.8268 20.4545 51.8673 20.8856 52.6345 21.6527C53.4017 22.4199 53.8327 23.4605 53.8327 24.5455ZM10.8781 32.7273H4.74179C4.74179 35.9822 6.0348 39.1038 8.33639 41.4054C10.638 43.707 13.7596 45 17.0145 45H37.4691C40.724 45 43.8456 43.707 46.1472 41.4054C48.4488 39.1038 49.7418 35.9822 49.7418 32.7273H10.8781ZM8.8327 16.3636H4.74179V8.18182C4.74179 6.01186 5.6038 3.93079 7.13819 2.3964C8.67257 0.86201 10.7537 0 12.9236 0H41.56C43.7299 0 45.811 0.86201 47.3454 2.3964C48.8798 3.93079 49.7418 6.01186 49.7418 8.18182V16.3636H8.8327ZM41.56 10.2273C41.56 10.7698 41.7755 11.29 42.1591 11.6736C42.5427 12.0572 43.0629 12.2727 43.6054 12.2727C44.1479 12.2727 44.6682 12.0572 45.0518 11.6736C45.4354 11.29 45.6509 10.7698 45.6509 10.2273C45.6509 9.68478 45.4354 9.16452 45.0518 8.78092C44.6682 8.39732 44.1479 8.18182 43.6054 8.18182C43.0629 8.18182 42.5427 8.39732 42.1591 8.78092C41.7755 9.16452 41.56 9.68478 41.56 10.2273ZM33.3781 6.13636C33.3781 6.67885 33.5936 7.19912 33.9772 7.58272C34.3608 7.96632 34.8811 8.18182 35.4236 8.18182C35.9661 8.18182 36.4864 7.96632 36.87 7.58272C37.2536 7.19912 37.4691 6.67885 37.4691 6.13636C37.4691 5.59388 37.2536 5.07361 36.87 4.69001C36.4864 4.30641 35.9661 4.09091 35.4236 4.09091C34.8811 4.09091 34.3608 4.30641 33.9772 4.69001C33.5936 5.07361 33.3781 5.59388 33.3781 6.13636ZM25.1963 10.2273C25.1963 10.7698 25.4118 11.29 25.7954 11.6736C26.179 12.0572 26.6993 12.2727 27.2418 12.2727C27.7843 12.2727 28.3045 12.0572 28.6881 11.6736C29.0717 11.29 29.2872 10.7698 29.2872 10.2273C29.2872 9.68478 29.0717 9.16452 28.6881 8.78092C28.3045 8.39732 27.7843 8.18182 27.2418 8.18182C26.6993 8.18182 26.179 8.39732 25.7954 8.78092C25.4118 9.16452 25.1963 9.68478 25.1963 10.2273ZM17.0145 6.13636C17.0145 6.67885 17.23 7.19912 17.6136 7.58272C17.9972 7.96632 18.5175 8.18182 19.06 8.18182C19.6025 8.18182 20.1227 7.96632 20.5063 7.58272C20.8899 7.19912 21.1054 6.67885 21.1054 6.13636C21.1054 5.59388 20.8899 5.07361 20.5063 4.69001C20.1227 4.30641 19.6025 4.09091 19.06 4.09091C18.5175 4.09091 17.9972 4.30641 17.6136 4.69001C17.23 5.07361 17.0145 5.59388 17.0145 6.13636ZM8.8327 10.2273C8.8327 10.7698 9.0482 11.29 9.4318 11.6736C9.81539 12.0572 10.3357 12.2727 10.8781 12.2727C11.4206 12.2727 11.9409 12.0572 12.3245 11.6736C12.7081 11.29 12.9236 10.7698 12.9236 10.2273C12.9236 9.68478 12.7081 9.16452 12.3245 8.78092C11.9409 8.39732 11.4206 8.18182 10.8781 8.18182C10.3357 8.18182 9.81539 8.39732 9.4318 8.78092C9.0482 9.16452 8.8327 9.68478 8.8327 10.2273Z" fill="#221516"/>
</svg>
