<?xml version="1.0" encoding="UTF-8"?>
<svg id="Layer_2" data-name="Layer 2" xmlns="http://www.w3.org/2000/svg" viewBox="0 0 100.06 100.74">
  <defs>
    <style>
      .cls-1, .cls-2, .cls-3 {
        stroke-width: 0px;
      }

      .cls-2 {
        fill: #ffdcac;
      }

      .cls-4 {
        fill: #85a078;
        stroke: #000;
        stroke-linecap: round;
        stroke-linejoin: round;
      }

      .cls-4, .cls-5 {
        stroke-width: .5px;
      }

      .cls-3 {
        fill: #fbb047;
      }

      .cls-6 {
        font-family: FreestyleScript-Regular, 'Freestyle Script';
        font-size: 2px;
      }

      .cls-5 {
        fill: #573a0b;
        stroke: #231f20;
        stroke-miterlimit: 10;
      }
    </style>
  </defs>
  <g id="Layer_1-2" data-name="Layer 1">
    <g>
      <text class="cls-6" transform="translate(.27 11.12)"><tspan x="0" y="0">Build</tspan></text>
      <path class="cls-5" d="m24.32,7.98c.29-1.64-.53-1.64-.53-1.64h-9.54c-.98,0-.59,1.64-.59,1.64,0,0,1.17.73,2.54.73s7-.18,7.61-.46"/>
      <g>
        <path class="cls-3" d="m19.98,11.26c-2.77,0-5.91-.2-6.04-.21-.54-.04-.89-.46-1.02-.65-.11-.16-.23-.39-.18-.56v-1.6c.12-.43.59-.43.74-.43.03,0,.14,0,.16.02,1.16.39,2.55.59,4.14.59,2.33,0,4.52-.42,5.69-.65.5-.1.73-.14.85-.14.29,0,.52.08.66.23.11.12.14.26.15.34.24.7.31,2-.88,2.64-.53.28-1.93.42-4.27.42Z"/>
        <path class="cls-1" d="m24.32,7.88c.59,0,.56.36.56.36,0,0,.62,1.64-.75,2.37-.56.3-2.28.39-4.15.39-2.67,0-5.65-.19-6.02-.21-.63-.04-1.01-.78-.98-.88v-1.67c.04-.12.2-.18.5-.18.03,0,.06,0,.08,0,1.32.45,2.8.6,4.22.6,3.2,0,6.13-.79,6.54-.79m0-.5c-.15,0-.37.04-.9.14-1.17.22-3.33.64-5.64.64-1.56,0-2.93-.19-4.06-.58-.05-.02-.09-.02-.14-.03h-.1c-.66,0-.9.28-.98.52-.02.05-.03.1-.03.16v1.63c-.01.12.01.34.24.67.31.45.75.73,1.21.76.13,0,3.26.21,6.05.21,3.18,0,4.03-.26,4.39-.45,1.32-.71,1.27-2.13,1.01-2.91-.01-.12-.06-.29-.21-.45-.19-.21-.47-.31-.84-.31h0Z"/>
      </g>
      <g>
        <path class="cls-3" d="m18.57,6.4c-1.87,0-3.58-.38-5.09-1.14-.08-.04-.14-.13-.14-.22,0-.05.06-4.79,5.09-4.79.17,0,.35,0,.53.02,5.53.35,5.49,4.73,5.49,4.78,0,.1-.06.18-.15.22-.1.05-2.58,1.14-5.74,1.14Z"/>
        <path class="cls-1" d="m18.44.5c.17,0,.34,0,.52.02,5.36.33,5.26,4.52,5.26,4.52,0,0-2.5,1.12-5.64,1.12-1.57,0-3.31-.28-4.97-1.12,0,0,0-4.54,4.84-4.54m0-.5h0c-5.28,0-5.34,4.99-5.34,5.04,0,.19.11.36.28.45,1.54.78,3.29,1.17,5.2,1.17,3.21,0,5.74-1.11,5.85-1.16.18-.08.29-.25.3-.44,0-.05.04-4.67-5.73-5.03-.19-.01-.37-.02-.55-.02h0Z"/>
      </g>
      <path class="cls-4" d="m24.28,5.06c1.46-1.17.26,1.42.26,1.42,0,0-.96-.51-1.69.52s-1.38.24-1.38.24c0,0-.7-1.09-1.58-.18s-1.94-.06-1.94-.06c-1.24-1.88-1.93-.85-2.63-.12s-2.29.18-2.29-.36-.53-.36-.53-.36l1.06-.73s7.55,2.19,10.74-.36Z"/>
      <path class="cls-2" d="m16.21,3.6c0,.18-.2.18-.2,0,0-.1.1-.18.1-.18,0,0,.1.08.1.18Z"/>
      <path class="cls-2" d="m22.52,2.98c0,.18-.19.18-.19,0,0-.1.09-.18.09-.18,0,0,.09.08.09.18Z"/>
      <path class="cls-2" d="m15.56,2.46c0,.18-.19.18-.19,0,0-.1.09-.18.09-.18,0,0,.09.08.09.18Z"/>
      <path class="cls-2" d="m17.06,2.98c0,.18-.19.18-.19,0,0-.1.09-.18.09-.18,0,0,.09.08.09.18Z"/>
      <path class="cls-2" d="m19.89,2.63c0,.18-.19.18-.19,0,0-.1.09-.18.09-.18,0,0,.09.08.09.18Z"/>
      <path class="cls-2" d="m20.64,3.51c0,.18-.19.18-.19,0,0-.1.09-.18.09-.18,0,0,.09.08.09.18Z"/>
      <path class="cls-2" d="m19.51,3.51c0,.18-.19.18-.19,0,0-.1.09-.18.09-.18,0,0,.09.08.09.18Z"/>
      <path class="cls-2" d="m18.94,1.4c0,.18-.19.18-.19,0,0-.1.09-.18.09-.18,0,0,.09.08.09.18Z"/>
      <path class="cls-2" d="m18.94,4.69c0,.18-.2.18-.2,0,0-.1.1-.18.1-.18,0,0,.1.08.1.18Z"/>
      <path class="cls-2" d="m18.57,2.81c0,.18-.19.18-.19,0,0-.1.09-.18.09-.18,0,0,.09.08.09.18Z"/>
      <path class="cls-2" d="m17.77,4.15c0,.18-.2.18-.2,0,0-.1.1-.18.1-.18,0,0,.1.08.1.18Z"/>
      <path class="cls-2" d="m15.62,4.33c0,.18-.2.18-.2,0,0-.1.1-.18.1-.18,0,0,.1.08.1.18Z"/>
      <path class="cls-2" d="m17.44,1.76c0,.18-.19.18-.19,0,0-.1.09-.18.09-.18,0,0,.09.08.09.18Z"/>
      <path class="cls-2" d="m21.39,2.28c0,.18-.19.18-.19,0,0-.1.09-.18.09-.18,0,0,.09.08.09.18Z"/>
      <path class="cls-2" d="m20.45,1.58c0,.18-.19.18-.19,0,0-.1.09-.18.09-.18,0,0,.09.08.09.18Z"/>
      <path class="cls-2" d="m22.33,4.21c0,.18-.19.18-.19,0,0-.1.09-.18.09-.18,0,0,.09.08.09.18Z"/>
      <path class="cls-2" d="m16.99,4.69c0,.18-.2.18-.2,0,0-.1.1-.18.1-.18,0,0,.1.08.1.18Z"/>
      <path class="cls-2" d="m14.64,4.33c0,.18-.2.18-.2,0,0-.1.1-.18.1-.18,0,0,.1.08.1.18Z"/>
      <path class="cls-2" d="m20.26,4.56c0,.18-.19.18-.19,0,0-.1.09-.18.09-.18,0,0,.09.08.09.18Z"/>
      <path class="cls-2" d="m21.58,3.33c0,.18-.19.18-.19,0,0-.1.09-.18.09-.18,0,0,.09.08.09.18Z"/>
      <path class="cls-2" d="m16.12,1.76c0,.18-.19.18-.19,0,0-.1.09-.18.09-.18,0,0,.09.08.09.18Z"/>
      <text class="cls-6" transform="translate(27.28 11.12)"><tspan x="0" y="0">Bite</tspan></text>
    </g>
  </g>
</svg>