<?xml version="1.0" encoding="UTF-8"?>
<svg id="Layer_2" data-name="Layer 2" xmlns="http://www.w3.org/2000/svg" viewBox="0 0 215.29 69.47">
  <defs>
    <style>
      .cls-1 {
        font-size: 10 px;
      }

      .cls-1, .cls-2 {
        font-family: FreestyleScript-Regular, 'Freestyle Script';
      }

      .cls-2 {
        font-size: 5 px;
      }

      .cls-3, .cls-4, .cls-5 {
        stroke-width: 0px;
      }

      .cls-4 {
        fill: #ffdcac;
      }

      .cls-6 {
        fill: #85a078;
        stroke: #000;
        stroke-linecap: round;
        stroke-linejoin: round;
      }

      .cls-6, .cls-7 {
        stroke-width: 2px;
      }

      .cls-5 {
        fill: #fbb047;
      }

      .cls-7 {
        fill: #573a0b;
        stroke: #231f20;
        stroke-miterlimit: 10;
      }
    </style>
  </defs>
  <g id="Layer_1-2" data-name="Layer 1">
    <text class="cls-2" transform="translate(2 48.98)"><tspan x="0" y="0">Build</tspan></text>
    <g>
      <path class="cls-7" d="m137.28,35.47c1.22-6.87-2.23-6.87-2.23-6.87h-39.95c-4.1,0-2.46,6.87-2.46,6.87,0,0,4.92,3.05,10.65,3.05s29.32-.76,31.86-1.91"/>
      <g>
        <path class="cls-5" d="m119.08,49.18c-11.65,0-24.72-.84-25.27-.88-2.25-.15-3.71-1.93-4.23-2.69-.41-.6-.85-1.4-.81-2.04v-6.95c0-.11.02-.21.05-.32.49-1.45,2.42-1.45,3.05-1.45.13,0,.26,0,.39,0,.1,0,.19.02.29.05,4.85,1.64,10.68,2.48,17.34,2.48,9.77,0,18.92-1.76,23.84-2.71,2.09-.4,3.03-.58,3.55-.58,1.22,0,2.13.32,2.72.96.46.51.58,1.06.6,1.38,1,2.91,1.3,8.34-3.67,10.99-2.22,1.18-8.06,1.76-17.87,1.76Z"/>
        <path class="cls-3" d="m137.29,35.08c2.46,0,2.33,1.53,2.33,1.53,0,0,2.59,6.87-3.15,9.93-2.36,1.26-9.56,1.64-17.4,1.64-11.19,0-23.68-.78-25.2-.87-2.65-.17-4.22-3.29-4.1-3.69v-7c.17-.5.83-.77,2.1-.77.11,0,.23,0,.36,0,5.55,1.88,11.71,2.53,17.66,2.53,13.39,0,25.69-3.29,27.39-3.29m0-2c-.61,0-1.53.17-3.74.6-4.88.94-13.97,2.69-23.65,2.69-6.55,0-12.27-.82-17.02-2.42-.18-.06-.38-.1-.57-.1-.15,0-.29,0-.43,0-2.18,0-3.53.72-4,2.14-.07.2-.1.42-.1.63v6.83c-.05.5.06,1.38.98,2.73,1.27,1.86,3.09,3,4.99,3.12.55.04,13.66.88,25.33.88,13.28,0,16.83-1.07,18.34-1.87,5.5-2.93,5.25-8.84,4.19-12.08-.07-.58-.32-1.27-.85-1.85-.78-.85-1.95-1.29-3.46-1.29h0Z"/>
      </g>
      <g>
        <path class="cls-5" d="m113.21,28.83c-7.81,0-14.97-1.61-21.28-4.78-.34-.17-.55-.52-.55-.89,0-.2.25-20,21.27-20,.72,0,1.48.02,2.23.07,23.13,1.45,22.96,19.77,22.96,19.95,0,.39-.24.73-.59.89-.44.19-10.8,4.76-24.03,4.76Z"/>
        <path class="cls-3" d="m112.65,4.16c.7,0,1.42.02,2.17.07,22.44,1.4,22.02,18.93,22.02,18.93,0,0-10.45,4.67-23.63,4.67-6.59,0-13.85-1.17-20.83-4.67,0,0,0-19,20.27-19m0-2h0c-22.01,0-22.27,20.79-22.27,21,0,.76.43,1.45,1.1,1.79,6.46,3.24,13.77,4.89,21.73,4.89,13.44,0,24-4.65,24.44-4.85.7-.31,1.16-1.01,1.18-1.78,0-.19.18-19.47-23.9-20.97-.78-.05-1.55-.07-2.29-.07h0Z"/>
      </g>
      <path class="cls-6" d="m137.12,23.25c6.13-4.9,1.08,5.95,1.08,5.95,0,0-4.03-2.13-7.09,2.2s-5.79,1.01-5.79,1.01c0,0-2.95-4.58-6.63-.76s-8.14-.25-8.14-.25c-5.19-7.89-8.08-3.57-11.03-.51s-9.58.76-9.58-1.53-2.21-1.53-2.21-1.53l4.42-3.05s31.61,9.16,44.97-1.53Z"/>
      <path class="cls-4" d="m103.3,17.14c0,.76-.82.76-.82,0,0-.42.41-.76.41-.76,0,0,.41.34.41.76Z"/>
      <path class="cls-4" d="m129.74,14.56c0,.73-.79.73-.79,0,0-.41.39-.73.39-.73,0,0,.39.33.39.73Z"/>
      <path class="cls-4" d="m100.58,12.35c0,.73-.79.73-.79,0,0-.41.39-.73.39-.73,0,0,.39.33.39.73Z"/>
      <path class="cls-4" d="m106.88,14.56c0,.73-.79.73-.79,0,0-.41.39-.73.39-.73,0,0,.39.33.39.73Z"/>
      <path class="cls-4" d="m118.71,13.09c0,.73-.79.73-.79,0,0-.41.39-.73.39-.73,0,0,.39.33.39.73Z"/>
      <path class="cls-4" d="m121.86,16.76c0,.73-.79.73-.79,0,0-.41.39-.73.39-.73,0,0,.39.33.39.73Z"/>
      <path class="cls-4" d="m117.13,16.76c0,.73-.79.73-.79,0,0-.41.39-.73.39-.73,0,0,.39.33.39.73Z"/>
      <path class="cls-4" d="m114.76,7.95c0,.73-.79.73-.79,0,0-.41.39-.73.39-.73,0,0,.39.33.39.73Z"/>
      <path class="cls-4" d="m114.76,21.72c0,.76-.82.76-.82,0,0-.42.41-.76.41-.76,0,0,.41.34.41.76Z"/>
      <path class="cls-4" d="m113.19,13.82c0,.73-.79.73-.79,0,0-.41.39-.73.39-.73,0,0,.39.33.39.73Z"/>
      <path class="cls-4" d="m109.85,19.43c0,.76-.82.76-.82,0,0-.42.41-.76.41-.76,0,0,.41.34.41.76Z"/>
      <path class="cls-4" d="m100.84,20.19c0,.76-.82.76-.82,0,0-.42.41-.76.41-.76,0,0,.41.34.41.76Z"/>
      <path class="cls-4" d="m108.46,9.42c0,.73-.79.73-.79,0,0-.41.39-.73.39-.73,0,0,.39.33.39.73Z"/>
      <path class="cls-4" d="m125.01,11.62c0,.73-.79.73-.79,0,0-.41.39-.73.39-.73,0,0,.39.33.39.73Z"/>
      <path class="cls-4" d="m121.07,8.68c0,.73-.79.73-.79,0,0-.41.39-.73.39-.73,0,0,.39.33.39.73Z"/>
      <path class="cls-4" d="m128.95,19.7c0,.73-.79.73-.79,0,0-.41.39-.73.39-.73,0,0,.39.33.39.73Z"/>
      <path class="cls-4" d="m106.57,21.72c0,.76-.82.76-.82,0,0-.42.41-.76.41-.76,0,0,.41.34.41.76Z"/>
      <path class="cls-4" d="m96.74,20.19c0,.76-.82.76-.82,0,0-.42.41-.76.41-.76,0,0,.41.34.41.76Z"/>
      <path class="cls-4" d="m120.28,21.17c0,.73-.79.73-.79,0,0-.41.39-.73.39-.73,0,0,.39.33.39.73Z"/>
      <path class="cls-4" d="m125.8,16.03c0,.73-.79.73-.79,0,0-.41.39-.73.39-.73,0,0,.39.33.39.73Z"/>
      <path class="cls-4" d="m102.94,9.42c0,.73-.79.73-.79,0,0-.41.39-.73.39-.73,0,0,.39.33.39.73Z"/>
    </g>
    <text class="cls-1" transform="translate(150.89 50.27)"><tspan x="0" y="0">Bite</tspan></text>
  </g>
</svg>