<svg width="19" height="21" viewBox="0 0 19 21" fill="none" xmlns="http://www.w3.org/2000/svg">
<path d="M3.15883 1.08381L5.09583 0.597246C5.7351 0.436917 6.42255 0.475818 7.02994 0.706691C7.63732 0.937564 8.12316 1.34464 8.39683 1.85199L9.75483 4.36814C9.99053 4.80465 10.0562 5.29171 9.94269 5.76092C9.82916 6.23013 9.5421 6.65794 9.12183 6.98427L7.05483 8.58895C6.77783 8.80807 6.98783 9.66206 7.99983 11.1234C9.01283 12.5856 9.79583 13.1638 10.1568 13.0739L12.8648 12.384C13.4137 12.2441 14.0014 12.2508 14.5455 12.4032C15.0896 12.5556 15.5628 12.8461 15.8988 13.2338L17.8288 15.4625C18.2187 15.9126 18.3992 16.4652 18.3368 17.0178C18.2745 17.5704 17.9735 18.0853 17.4898 18.4669L15.9978 19.6442C15.5162 20.0242 14.9222 20.291 14.2764 20.4173C13.6306 20.5436 12.9561 20.525 12.3218 20.3632C9.19583 19.5659 6.30083 17.1997 3.59783 13.298C0.888829 9.39045 -0.134171 6.09446 0.578829 3.40167C0.722634 2.85908 1.03752 2.35825 1.49102 1.95083C1.94453 1.5434 2.52025 1.24411 3.15883 1.08381Z" fill="#221516"/>
</svg>
