<svg width="28" height="26" viewBox="0 0 28 26" fill="none" xmlns="http://www.w3.org/2000/svg">
<path d="M26.2212 9.33721L18.3731 8.19663L14.8648 1.08421C14.769 0.889474 14.6114 0.731833 14.4166 0.636011C13.9282 0.394913 13.3348 0.595828 13.0906 1.08421L9.58229 8.19663L1.73421 9.33721C1.51784 9.36812 1.32001 9.47012 1.16855 9.62467C0.985449 9.81287 0.884549 10.0661 0.888026 10.3286C0.891504 10.5912 0.999074 10.8416 1.1871 11.0249L6.86529 16.5609L5.52379 24.3781C5.49233 24.5599 5.51245 24.7469 5.58188 24.9179C5.6513 25.0889 5.76724 25.237 5.91656 25.3455C6.06588 25.4539 6.2426 25.5184 6.42667 25.5315C6.61075 25.5446 6.79482 25.5059 6.95802 25.4197L13.9777 21.7291L20.9974 25.4197C21.189 25.5217 21.4116 25.5557 21.6249 25.5187C22.1627 25.4259 22.5244 24.9159 22.4316 24.3781L21.0901 16.5609L26.7683 11.0249C26.9229 10.8734 27.0249 10.6756 27.0558 10.4592C27.1392 9.91832 26.7621 9.41757 26.2212 9.33721Z" fill="#EDA539"/>
</svg>
